#!OML:ASF E:\motion texture\Top Level 1\Subject 1\Session 1\male.ASF
:FULLY-SPECIFIED
:DEGREES
177
root 1.87933 17.9179 4.78139 487.156 -79.8283 -479.139
lowerback 3.13464 0.163046 7.72215
upperback 1.25952 0.255525 5.77517
thorax -0.436879 0.0367774 1.63351
lowerneck -5.75516 -12.8087 -12.0467
upperneck 10.9208 -18.813 16.7279
head 7.04264 -8.8111 5.43721
rclavicle -2.98177e-015 1.27222e-014
rhumerus -27.6317 1.33541 -65.1835
rradius 103.102
rwrist 2.43017
rhand -30.7191 -34.976
rfingers 7.12502
rthumb -4.01187 -64.9179
lclavicle -2.98177e-015 1.27222e-014
lhumerus -52.2245 11.1077 73.884
lradius 35.3987
lwrist -23.4066
lhand -10.629 18.9337
lfingers 7.12502
lthumb 15.3779 48.3418
rfemur -10.678 4.32623 31.4567
rtibia 21.423
rfoot -13.6519 -8.46128
rtoes 11.6275
lfemur -36.3172 5.97558 -8.87416
ltibia 50.481
lfoot -10.1823 6.08816
ltoes -14.8804
178
root 1.74708 17.9014 4.78367 488.048 -79.705 -479.809
lowerback 3.22092 0.189292 7.80054
upperback 1.24067 0.303945 5.76961
thorax -0.502786 0.0586675 1.58287
lowerneck -5.43396 -13.0519 -12.2486
upperneck 10.7947 -19.2033 17.0129
head 7.05753 -9.01228 5.51933
rclavicle 1.31198e-014 2.78299e-014
rhumerus -26.7756 2.54403 -64.8534
rradius 104.825
rwrist 3.33759
rhand -31.7683 -35.8798
rfingers 7.12502
rthumb -5.02498 -65.8002
lclavicle 1.31198e-014 2.78299e-014
lhumerus -52.7071 11.2485 73.6708
lradius 35.4135
lwrist -23.344
lhand -10.7208 18.8094
lfingers 7.12502
lthumb 15.2895 48.2243
rfemur -10.5444 4.40506 31.4845
rtibia 21.6477
rfoot -14.1272 -8.43925
rtoes 11.0612
lfemur -37.0854 5.87573 -8.73874
ltibia 48.5974
lfoot -9.87521 6.23791
ltoes -15.0641
179
root 1.61218 17.8848 4.78536 488.892 -79.5982 -480.428
lowerback 3.2974 0.213045 7.86454
upperback 1.21168 0.34934 5.75531
thorax -0.57384 0.0790837 1.53109
lowerneck -5.10559 -13.3021 -12.4822
upperneck 10.6511 -19.6086 17.3424
head 7.07844 -9.22109 5.61775
rclavicle -3.97569e-016 3.97569e-014
rhumerus -26.0387 4.13189 -64.5445
rradius 106.551
rwrist 3.85117
rhand -32.6685 -36.7251
rfingers 7.12502
rthumb -5.89415 -66.6232
lclavicle -3.97569e-016 3.97569e-014
lhumerus -53.0888 11.4174 73.4425
lradius 35.2849
lwrist -23.3599
lhand -10.8279 18.6366
lfingers 7.12502
lthumb 15.1863 48.0593
rfemur -10.3889 4.47725 31.4973
rtibia 21.8427
rfoot -14.5921 -8.43329
rtoes 10.4905
lfemur -37.7531 5.7075 -8.56676
ltibia 46.5368
lfoot -9.37272 6.37519
ltoes -15.1705
180
root 1.47449 17.868 4.78622 489.707 -79.5006 -481.024
lowerback 3.36476 0.237779 7.91296
upperback 1.17975 0.395466 5.73314
thorax -0.642826 0.100118 1.47958
lowerneck -4.76393 -13.5622 -12.7458
upperneck 10.4684 -20.0315 17.7255
head 7.09952 -9.43945 5.7351
rclavicle 3.97569e-015 -6.36111e-014
rhumerus -25.4368 6.11277 -64.2463
rradius 108.292
rwrist 3.98234
rhand -33.3384 -37.3088
rfingers 7.12502
rthumb -6.54087 -67.1878
lclavicle 3.97569e-015 -6.36111e-014
lhumerus -53.3738 11.6153 73.1952
lradius 35.0336
lwrist -23.4482
lhand -10.8989 18.4778
lfingers 7.12502
lthumb 15.1179 47.9057
rfemur -10.2031 4.54672 31.5
rtibia 22.0081
rfoot -15.044 -8.43906
rtoes 9.92206
lfemur -38.3087 5.4777 -8.34775
ltibia 44.3087
lfoot -8.677 6.49116
ltoes -15.1675
181
root 1.33365 17.8512 4.78629 490.512 -79.4158 -481.622
lowerback 3.41956 0.263107 7.93681
upperback 1.15377 0.440191 5.70239
thorax -0.698753 0.121153 1.43266
lowerneck -4.41531 -13.8342 -13.0416
upperneck 10.2389 -20.4741 18.1693
head 7.12173 -9.66826 5.87286
rclavicle -6.36111e-015 2.22639e-014
rhumerus -24.9654 8.48485 -63.9571
rradius 110.043
rwrist 3.83609
rhand -33.7471 -37.5015
rfingers 7.12502
rthumb -6.93546 -67.3679
lclavicle -6.36111e-015 2.22639e-014
lhumerus -53.5624 11.8473 72.9222
lradius 34.6746
lwrist -23.6056
lhand -10.9221 18.3325
lfingers 7.12502
lthumb 15.0955 47.762
rfemur -9.97743 4.60882 31.4859
rtibia 22.1436
rfoot -15.4847 -8.44748
rtoes 9.37369
lfemur -38.74 5.1899 -8.0875
ltibia 41.9252
lfoot -7.81992 6.57711
ltoes -15.0443
182
root 1.19011 17.834 4.78529 491.292 -79.3442 -482.2
lowerback 3.4542 0.284715 7.93218
upperback 1.13343 0.476696 5.664
thorax -0.738009 0.138923 1.39375
lowerneck -4.05554 -14.1151 -13.3704
upperneck 9.95578 -20.9329 18.6802
head 7.14358 -9.90638 6.03383
rclavicle -1.59028e-015 -4.85035e-014
rhumerus -24.6197 11.238 -63.6788
rradius 111.783
rwrist 3.56929
rhand -33.9382 -37.2666
rfingers 7.12502
rthumb -7.11992 -67.1269
lclavicle -1.59028e-015 -4.85035e-014
lhumerus -53.6661 12.1313 72.6076
lradius 34.2208
lwrist -23.8311
lhand -10.9098 18.1716
lfingers 7.12502
lthumb 15.1074 47.6003
rfemur -9.72133 4.65998 31.4586
rtibia 22.2538
rfoot -15.912 -8.45747
rtoes 8.83181
lfemur -39.0637 4.84784 -7.78419
ltibia 39.4239
lfoot -6.86859 6.63211
ltoes -14.8359
183
root 1.04378 17.8165 4.7833 492.052 -79.2797 -482.765
lowerback 3.47005 0.298466 7.90116
upperback 1.11881 0.499621 5.61803
thorax -0.761449 0.150742 1.36204
lowerneck -3.69073 -14.4014 -13.7226
upperneck 9.62217 -21.4029 19.2529
head 7.16569 -10.1514 6.21501
rclavicle -1.63003e-014 -7.95139e-014
rhumerus -24.384 14.359 -63.413
rradius 113.482
rwrist 3.35311
rhand -33.9802 -36.6262
rfingers 7.12502
rthumb -7.16044 -66.4851
lclavicle -1.63003e-014 -7.95139e-014
lhumerus -53.6987 12.4919 72.2298
lradius 33.6785
lwrist -24.1448
lhand -10.8813 17.9632
lfingers 7.12502
lthumb 15.1348 47.3898
rfemur -9.43388 4.70243 31.4233
rtibia 22.3386
rfoot -16.3216 -8.46488
rtoes 8.28258
lfemur -39.2904 4.47148 -7.44021
ltibia 36.8532
lfoot -5.93523 6.66784
ltoes -14.668
184
root 0.894774 17.7984 4.78043 492.794 -79.2164 -483.314
lowerback 3.4643 0.298211 7.84817
upperback 1.1061 0.500948 5.56459
thorax -0.771723 0.152495 1.33557
lowerneck -3.32754 -14.692 -14.0803
upperneck 9.24921 -21.8816 19.8676
head 7.18876 -10.4021 6.40716
rclavicle -1.35174e-014 1.90833e-014
rhumerus -24.2313 17.8336 -63.155
rradius 115.112
rwrist 3.29106
rhand -33.9548 -35.6016
rfingers 7.12502
rthumb -7.13597 -65.4613
lclavicle -1.35174e-014 1.90833e-014
lhumerus -53.6927 12.9401 71.7728
lradius 33.0681
lwrist -24.5579
lhand -10.8728 17.6999
lfingers 7.12502
lthumb 15.143 47.1259
rfemur -9.12064 4.73889 31.3853
rtibia 22.4014
rfoot -16.717 -8.46298
rtoes 7.74306
lfemur -39.4339 4.07379 -7.05629
ltibia 34.2629
lfoot -5.13495 6.68791
ltoes -14.6985
185
root 0.742538 17.7796 4.77714 493.526 -79.1387 -483.861
lowerback 3.43974 0.28384 7.78935
upperback 1.09441 0.481361 5.50256
thorax -0.771096 0.144373 1.30427
lowerneck -2.95826 -14.9768 -14.4345
upperneck 8.84806 -22.3564 20.5118
head 7.21067 -10.6534 6.60777
rclavicle -1.64991e-014 -2.8625e-014
rhumerus -24.1535 21.6311 -62.8861
rradius 116.66
rwrist 3.45127
rhand -33.9977 -34.2103
rfingers 7.12502
rthumb -7.17733 -64.0686
lclavicle -1.64991e-014 -2.8625e-014
lhumerus -53.6686 13.4729 71.2316
lradius 32.4121
lwrist -25.0531
lhand -10.8826 17.397
lfingers 7.12502
lthumb 15.1336 46.8237
rfemur -8.77404 4.76914 31.3546
rtibia 22.4396
rfoot -17.0912 -8.44549
rtoes 7.18319
lfemur -39.4937 3.67254 -6.62769
ltibia 31.702
lfoot -4.58557 6.72005
ltoes -14.8797
186
root 0.587078 17.7599 4.77374 494.264 -79.036 -484.424
lowerback 3.39173 0.255885 7.73246
upperback 1.08847 0.440683 5.43241
thorax -0.751971 0.126454 1.26437
lowerneck -2.60285 -15.2532 -14.7682
upperneck 8.43931 -22.8215 21.1611
head 7.23514 -10.9011 6.80601
rclavicle -2.18663e-015 -7.95139e-015
rhumerus -24.1014 25.7068 -62.5654
rradius 118.11
rwrist 3.87003
rhand -34.1654 -32.4113
rfingers 7.12502
rthumb -7.33927 -62.264
lclavicle -2.18663e-015 -7.95139e-015
lhumerus -53.6386 14.0865 70.6115
lradius 31.7303
lwrist -25.6171
lhand -10.9156 17.0831
lfingers 7.12502
lthumb 15.1018 46.5122
rfemur -8.39386 4.79949 31.3365
rtibia 22.4577
rfoot -17.4409 -8.40358
rtoes 6.60634
lfemur -39.4765 3.28932 -6.15875
ltibia 29.217
lfoot -4.33241 6.76934
ltoes -15.1805
187
root 0.42817 17.7393 4.77084 495.002 -78.9016 -485.001
lowerback 3.32306 0.214894 7.68712
upperback 1.08701 0.380287 5.35606
thorax -0.717158 0.0992263 1.21243
lowerneck -2.26366 -15.5157 -15.0834
upperneck 8.04459 -23.2699 21.798
head 7.26559 -11.1416 6.99763
rclavicle -6.36111e-015 -6.83819e-014
rhumerus -24.0372 29.9904 -62.1319
rradius 119.453
rwrist 4.59949
rhand -34.4669 -30.132
rfingers 7.12502
rthumb -7.63026 -59.9744
lclavicle -6.36111e-015 -6.83819e-014
lhumerus -53.6163 14.7624 69.9288
lradius 31.0376
lwrist -26.2168
lhand -10.977 16.7733
lfingers 7.12502
lthumb 15.0426 46.2068
rfemur -7.97902 4.82581 31.3329
rtibia 22.4662
rfoot -17.7773 -8.32572
rtoes 6.03451
lfemur -39.3795 2.93097 -5.65504
ltibia 26.8369
lfoot -4.34916 6.84505
ltoes -15.4886
188
root 0.265822 17.7176 4.76889 495.767 -78.7294 -485.627
lowerback 3.24619 0.164689 7.6555
upperback 1.08655 0.30711 5.2741
thorax -0.677088 0.0658051 1.14754
lowerneck -1.94247 -15.7622 -15.3804
upperneck 7.68202 -23.6989 22.4067
head 7.30475 -11.3732 7.17813
rclavicle -2.78299e-015 -4.69132e-014
rhumerus -23.9151 34.3943 -61.5057
rradius 120.689
rwrist 5.74227
rhand -34.841 -27.3414
rfingers 7.12502
rthumb -7.99136 -57.1703
lclavicle -2.78299e-015 -4.69132e-014
lhumerus -53.612 15.4785 69.2024
lradius 30.346
lwrist -26.8192
lhand -11.0486 16.5276
lfingers 7.12502
lthumb 14.9737 45.9663
rfemur -7.52839 4.85509 31.3405
rtibia 22.4811
rfoot -18.105 -8.20286
rtoes 5.48575
lfemur -39.2023 2.60934 -5.12657
ltibia 24.5945
lfoot -4.54581 6.94588
ltoes -15.7151
189
root 0.100156 17.6949 4.76829 496.536 -78.5242 -486.286
lowerback 3.17125 0.105402 7.63611
upperback 1.08486 0.222582 5.18942
thorax -0.639826 0.0266196 1.07341
lowerneck -1.63962 -15.9947 -15.6646
upperneck 7.35709 -24.1109 22.9785
head 7.35349 -11.5966 7.34505
rclavicle 1.2921e-014 8.26944e-014
rhumerus -23.6669 38.8177 -60.5918
rradius 121.819
rwrist 7.40605
rhand -35.1914 -24.2169
rfingers 7.12502
rthumb -8.3295 -54.0327
lclavicle 1.2921e-014 8.26944e-014
lhumerus -53.6254 16.2132 68.4535
lradius 29.6563
lwrist -27.4004
lhand -11.1284 16.3478
lfingers 7.12502
lthumb 14.8968 45.7922
rfemur -7.04302 4.87424 31.3533
rtibia 22.5137
rfoot -18.428 -8.03307
rtoes 4.94995
lfemur -38.955 2.32713 -4.59154
ltibia 22.5309
lfoot -4.81364 7.06012
ltoes -15.8362
190
root -0.0685418 17.6713 4.76913 497.305 -78.2887 -486.976
lowerback 3.09504 0.0412439 7.62916
upperback 1.0861 0.131563 5.10044
thorax -0.599193 -0.015662 0.988075
lowerneck -1.35068 -16.2178 -15.9376
upperneck 7.05768 -24.511 23.5195
head 7.40873 -11.8146 7.50007
rclavicle 1.25234e-014 7.95139e-015
rhumerus -23.212 43.137 -59.2791
rradius 122.861
rwrist 9.61832
rhand -35.468 -21.0911
rfingers 7.12502
rthumb -8.59648 -50.8961
lclavicle 1.25234e-014 7.95139e-015
lhumerus -53.6358 16.9372 67.7077
lradius 28.9696
lwrist -27.931
lhand -11.2145 16.237
lfingers 7.12502
lthumb 14.8139 45.6875
rfemur -6.53132 4.88227 31.3665
rtibia 22.5835
rfoot -18.7426 -7.81401
rtoes 4.37378
lfemur -38.6538 2.08743 -4.06306
ltibia 20.6952
lfoot -5.0647 7.17834
ltoes -15.8892
